<svg xmlns="http://www.w3.org/2000/svg" width="740.00000" height="774.00000" viewBox="0 0 740.00000 774.00000">
<rect width="100%" height="100%" fill="#ffffff"/>
<text x="60.00000" y="28" font-family="sans-serif" font-size="16" fill="#111">packing (NOT a crease pattern) — full tree, uniform edge lengths, m=0.1847</text>
<rect x="60.00000" y="94.00000" width="620.00000" height="620.00000" fill="none" stroke="#111" stroke-width="2"/>
<line x1="680.00000" y1="255.94636" x2="518.05357" y2="94.00000" stroke="#c00" stroke-width="1.4" stroke-dasharray="5 4"/>
<line x1="680.00000" y1="255.94636" x2="679.99993" y2="713.99993" stroke="#c00" stroke-width="1.4" stroke-dasharray="5 4"/>
<line x1="680.00000" y1="255.94636" x2="370.00008" y2="404.00008" stroke="#c00" stroke-width="1.4" stroke-dasharray="5 4"/>
<line x1="518.05357" y1="94.00000" x2="60.00000" y2="94.00000" stroke="#c00" stroke-width="1.4" stroke-dasharray="5 4"/>
<line x1="518.05357" y1="94.00000" x2="370.00008" y2="404.00008" stroke="#c00" stroke-width="1.4" stroke-dasharray="5 4"/>
<line x1="679.99993" y1="713.99993" x2="221.94636" y2="714.00000" stroke="#c00" stroke-width="1.4" stroke-dasharray="5 4"/>
<line x1="60.00000" y1="94.00000" x2="60.00000" y2="552.05357" stroke="#c00" stroke-width="1.4" stroke-dasharray="5 4"/>
<line x1="370.00008" y1="404.00008" x2="60.00000" y2="552.05357" stroke="#c00" stroke-width="1.4" stroke-dasharray="5 4"/>
<line x1="370.00008" y1="404.00008" x2="221.94636" y2="714.00000" stroke="#c00" stroke-width="1.4" stroke-dasharray="5 4"/>
<line x1="60.00000" y1="552.05357" x2="221.94636" y2="714.00000" stroke="#c00" stroke-width="1.4" stroke-dasharray="5 4"/>
<circle cx="680.00000" cy="255.94636" r="114.51339" fill="#2b6cb0" fill-opacity="0.10" stroke="#2b6cb0" stroke-width="1.2"/>
<circle cx="680.00000" cy="255.94636" r="3.2" fill="#2b6cb0"/>
<text x="687.00000" y="248.94636" font-family="sans-serif" font-size="12" fill="#123">AboutLinks</text>
<circle cx="518.05357" cy="94.00000" r="114.51339" fill="#2b6cb0" fill-opacity="0.10" stroke="#2b6cb0" stroke-width="1.2"/>
<circle cx="518.05357" cy="94.00000" r="3.2" fill="#2b6cb0"/>
<text x="525.05357" y="87.00000" font-family="sans-serif" font-size="12" fill="#123">AboutProfile</text>
<circle cx="679.99993" cy="713.99993" r="114.51339" fill="#2b6cb0" fill-opacity="0.10" stroke="#2b6cb0" stroke-width="1.2"/>
<circle cx="679.99993" cy="713.99993" r="3.2" fill="#2b6cb0"/>
<text x="686.99993" y="706.99993" font-family="sans-serif" font-size="12" fill="#123">Chrome</text>
<circle cx="60.00000" cy="94.00000" r="114.51339" fill="#2b6cb0" fill-opacity="0.10" stroke="#2b6cb0" stroke-width="1.2"/>
<circle cx="60.00000" cy="94.00000" r="3.2" fill="#2b6cb0"/>
<text x="67.00000" y="87.00000" font-family="sans-serif" font-size="12" fill="#123">HomeList</text>
<circle cx="370.00008" cy="404.00008" r="114.51339" fill="#2b6cb0" fill-opacity="0.10" stroke="#2b6cb0" stroke-width="1.2"/>
<circle cx="370.00008" cy="404.00008" r="3.2" fill="#2b6cb0"/>
<text x="377.00008" y="397.00008" font-family="sans-serif" font-size="12" fill="#123">NotFound</text>
<circle cx="60.00000" cy="552.05357" r="114.51339" fill="#2b6cb0" fill-opacity="0.10" stroke="#2b6cb0" stroke-width="1.2"/>
<circle cx="60.00000" cy="552.05357" r="3.2" fill="#2b6cb0"/>
<text x="67.00000" y="545.05357" font-family="sans-serif" font-size="12" fill="#123">PostBody</text>
<circle cx="221.94636" cy="714.00000" r="114.51339" fill="#2b6cb0" fill-opacity="0.10" stroke="#2b6cb0" stroke-width="1.2"/>
<circle cx="221.94636" cy="714.00000" r="3.2" fill="#2b6cb0"/>
<text x="228.94636" y="707.00000" font-family="sans-serif" font-size="12" fill="#123">PostTitle</text>
</svg>
